<svg height="512px" style="enable-background:new 0 0 512 512;" version="1.1" viewBox="0 0 512 512" width="512px" xml:space="preserve" xmlns="http://www.w3.org/2000/svg" xmlns:xlink="http://www.w3.org/1999/xlink"><g id="linkedin__x2C__social__x2C__media_x2C__icons_x2C_"><g><path d="M425.619,86.346C382.172,42.9,322.258,16.066,255.965,16.066    c-66.297,0-126.212,26.834-169.65,70.279c-43.452,43.442-70.286,103.359-70.286,169.652c0,66.292,26.834,126.211,70.286,169.654    c43.438,43.447,103.353,70.281,169.65,70.281c66.293,0,126.207-26.834,169.654-70.281    c43.443-43.443,70.277-103.362,70.277-169.654C495.896,189.705,469.063,129.788,425.619,86.346z M412.332,412.365    c-39.993,40.126-95.251,64.835-156.367,64.835c-61.121,0-116.379-24.709-156.372-64.835    c-40.117-39.984-64.831-95.252-64.831-156.367c0-61.111,24.714-116.377,64.831-156.365C139.586,59.509,194.844,34.8,255.965,34.8    c61.116,0,116.374,24.709,156.367,64.833c40.121,39.988,64.831,95.254,64.831,156.365    C477.163,317.113,452.453,372.381,412.332,412.365z" style="fill:#262626;"></path><polygon points="145,258.257 145,363 198,363 198,249.621 198,218 145,218   " style="fill:#262626;"></polygon><path d="M310.3,218.666c-21.657,0-36.269,9.334-42.378,18.334H266v-19h-39v29.627V363h44v-70.331    c0-18.87,1.816-37.066,24.938-37.066c23.242,0,23.063,21.518,23.063,38.392V363h44v-78.039c0-7.443,0.221-14.946-0.574-21.325    C359.105,236.27,347.236,218.666,310.3,218.666z" style="fill:#262626;"></path><path d="M172.931,147.722c-13.949,0-25.244,11.293-25.244,25.244c0,13.952,11.295,25.242,25.244,25.242    c13.95,0,25.24-11.29,25.24-25.242C198.17,159.015,186.88,147.722,172.931,147.722z" style="fill:#262626;"></path></g></g><g id="Layer_1"></g></svg>